<?xml version="1.0" encoding="UTF-8"?>
<svg xmlns="http://www.w3.org/2000/svg" xmlns:xlink="http://www.w3.org/1999/xlink" width="90px" height="90px" viewBox="0 0 90 90" version="1.1">
<defs>
<linearGradient id="linear0" gradientUnits="userSpaceOnUse" x1="55.0003" y1="51.1537" x2="55.0003" y2="105" >
<stop offset="0" style="stop-color:rgb(70.196078%,59.607843%,100%);stop-opacity:1;"/>
<stop offset="1" style="stop-color:rgb(92.156863%,79.215686%,98.431373%);stop-opacity:1;"/>
</linearGradient>
<linearGradient id="linear1" gradientUnits="userSpaceOnUse" x1="55" y1="5" x2="55" y2="66.5385" >
<stop offset="0" style="stop-color:rgb(70.196078%,59.607843%,100%);stop-opacity:1;"/>
<stop offset="1" style="stop-color:rgb(92.156863%,79.215686%,98.431373%);stop-opacity:1;"/>
</linearGradient>
<linearGradient id="linear2" gradientUnits="userSpaceOnUse" x1="17.0371" y1="58.8463" x2="17.0371" y2="81.9232" >
<stop offset="0" style="stop-color:rgb(70.196078%,59.607843%,100%);stop-opacity:1;"/>
<stop offset="1" style="stop-color:rgb(92.156863%,79.215686%,98.431373%);stop-opacity:1;"/>
</linearGradient>
<linearGradient id="linear3" gradientUnits="userSpaceOnUse" x1="93.9629" y1="58.8463" x2="93.9629" y2="81.9232" >
<stop offset="0" style="stop-color:rgb(70.196078%,59.607843%,100%);stop-opacity:1;"/>
<stop offset="1" style="stop-color:rgb(92.156863%,79.215686%,98.431373%);stop-opacity:1;"/>
</linearGradient>
<linearGradient id="linear4" gradientUnits="userSpaceOnUse" x1="55.5" y1="70.3848" x2="55.5" y2="78.0771" >
<stop offset="0" style="stop-color:rgb(70.196078%,59.607843%,100%);stop-opacity:1;"/>
<stop offset="1" style="stop-color:rgb(92.156863%,79.215686%,98.431373%);stop-opacity:1;"/>
</linearGradient>
</defs>
<g id="surface1">
<path style="fill:none;stroke-width:10;stroke-linecap:round;stroke-linejoin:round;stroke:url(#linear0);stroke-miterlimit:4;" d="M 66.539497 51.15191 L 43.460503 51.15191 C 39.211372 51.15191 35.769097 54.598958 35.769097 58.84809 L 35.769097 97.305122 C 35.769097 101.554253 39.211372 105.001302 43.460503 105.001302 L 66.539497 105.001302 C 70.788628 105.001302 74.230903 101.554253 74.230903 97.305122 L 74.230903 58.84809 C 74.230903 54.598958 70.788628 51.15191 66.539497 51.15191 Z M 66.539497 51.15191 " transform="matrix(0.818182,0,0,0.818182,0,0)"/>
<path style="fill:none;stroke-width:10;stroke-linecap:round;stroke-linejoin:round;stroke:url(#linear1);stroke-miterlimit:4;" d="M 16.538194 66.539497 L 8.846788 66.539497 C 7.825087 66.539497 6.846354 66.133681 6.125434 65.41276 C 5.404514 64.69184 4.998698 63.713108 4.998698 62.691406 L 4.998698 55 C 4.998698 41.736979 10.269531 29.023003 19.646267 19.646267 C 29.023003 10.269531 41.736979 4.998698 55 4.998698 C 61.56467 4.998698 68.067274 6.292535 74.135417 8.803819 C 80.198785 11.319878 85.713108 15.000868 90.353733 19.646267 C 94.999132 24.286892 98.680122 29.801215 101.196181 35.864583 C 103.707465 41.932726 105.001302 48.43533 105.001302 55 L 105.001302 62.691406 C 105.001302 63.713108 104.595486 64.69184 103.874566 65.41276 C 103.153646 66.133681 102.174913 66.539497 101.153212 66.539497 L 93.461806 66.539497 " transform="matrix(0.818182,0,0,0.818182,0,0)"/>
<path style="fill:none;stroke-width:10;stroke-linecap:round;stroke-linejoin:round;stroke:url(#linear2);stroke-miterlimit:4;" d="M 16.538194 58.84809 L 16.538194 81.922309 " transform="matrix(0.818182,0,0,0.818182,0,0)"/>
<path style="fill:none;stroke-width:10;stroke-linecap:round;stroke-linejoin:round;stroke:url(#linear3);stroke-miterlimit:4;" d="M 93.461806 58.84809 L 93.461806 81.922309 " transform="matrix(0.818182,0,0,0.818182,0,0)"/>
<path style="fill:none;stroke-width:10;stroke-linecap:round;stroke-linejoin:round;stroke:url(#linear4);stroke-miterlimit:4;" d="M 55 70.382812 L 55 78.078993 " transform="matrix(0.818182,0,0,0.818182,0,0)"/>
</g>
</svg>
