<?xml version="1.0" encoding="UTF-8"?>
<svg xmlns="http://www.w3.org/2000/svg" xmlns:xlink="http://www.w3.org/1999/xlink" width="90px" height="90px" viewBox="0 0 90 90" version="1.1">
<defs>
<linearGradient id="linear0" gradientUnits="userSpaceOnUse" x1="39.6152" y1="5" x2="39.6152" y2="35.75" >
<stop offset="0" style="stop-color:rgb(70.196078%,59.607843%,100%);stop-opacity:1;"/>
<stop offset="1" style="stop-color:rgb(92.156863%,79.215686%,98.431373%);stop-opacity:1;"/>
</linearGradient>
<linearGradient id="linear1" gradientUnits="userSpaceOnUse" x1="39.6151" y1="49.4165" x2="39.6151" y2="86.9998" >
<stop offset="0" style="stop-color:rgb(70.196078%,59.607843%,100%);stop-opacity:1;"/>
<stop offset="1" style="stop-color:rgb(92.156863%,79.215686%,98.431373%);stop-opacity:1;"/>
</linearGradient>
<linearGradient id="linear2" gradientUnits="userSpaceOnUse" x1="79.0376" y1="5" x2="79.0376" y2="35.75" >
<stop offset="0" style="stop-color:rgb(70.196078%,59.607843%,100%);stop-opacity:1;"/>
<stop offset="1" style="stop-color:rgb(92.156863%,79.215686%,98.431373%);stop-opacity:1;"/>
</linearGradient>
<linearGradient id="linear3" gradientUnits="userSpaceOnUse" x1="93.8461" y1="50.7148" x2="93.8461" y2="86.9998" >
<stop offset="0" style="stop-color:rgb(70.196078%,59.607843%,100%);stop-opacity:1;"/>
<stop offset="1" style="stop-color:rgb(92.156863%,79.215686%,98.431373%);stop-opacity:1;"/>
</linearGradient>
</defs>
<g id="surface1">
<path style="fill:none;stroke-width:10;stroke-linecap:round;stroke-linejoin:round;stroke:url(#linear0);stroke-miterlimit:4;" d="M 39.617187 35.749826 C 49.175347 35.749826 56.924045 28.865799 56.924045 20.376562 C 56.924045 11.883333 49.175347 4.999306 39.617187 4.999306 C 30.054253 4.999306 22.305556 11.883333 22.305556 20.376562 C 22.305556 28.865799 30.054253 35.749826 39.617187 35.749826 Z M 39.617187 35.749826 " transform="matrix(0.818182,0,0,0.978261,0,0)"/>
<path style="fill:none;stroke-width:10;stroke-linecap:round;stroke-linejoin:round;stroke:url(#linear1);stroke-miterlimit:4;" d="M 74.230903 87.000694 L 4.998698 87.000694 L 4.998698 80.164583 C 4.998698 72.010764 8.646267 64.188368 15.139323 58.422396 C 21.632378 52.656424 30.436198 49.418056 39.617187 49.418056 C 48.793403 49.418056 57.601997 52.656424 64.090278 58.422396 C 70.583333 64.188368 74.230903 72.010764 74.230903 80.164583 Z M 74.230903 87.000694 " transform="matrix(0.818182,0,0,0.978261,0,0)"/>
<path style="fill:none;stroke-width:10;stroke-linecap:round;stroke-linejoin:round;stroke:url(#linear2);stroke-miterlimit:4;" d="M 70.382812 4.999306 C 74.975694 4.999306 79.377604 6.620486 82.624132 9.503472 C 85.865885 12.386458 87.68967 16.29566 87.68967 20.376562 C 87.68967 24.453472 85.865885 28.362674 82.624132 31.24566 C 79.377604 34.128646 74.975694 35.749826 70.382812 35.749826 " transform="matrix(0.818182,0,0,0.978261,0,0)"/>
<path style="fill:none;stroke-width:10;stroke-linecap:round;stroke-linejoin:round;stroke:url(#linear3);stroke-miterlimit:4;" d="M 82.690972 50.715799 C 89.246094 52.927951 94.884549 56.857118 98.871094 61.984201 C 102.852865 67.107292 104.991753 73.188715 105.001302 79.413889 L 105.001302 87.000694 L 93.461806 87.000694 " transform="matrix(0.818182,0,0,0.978261,0,0)"/>
</g>
</svg>
